<?xml version="1.0" encoding="UTF-8" standalone="no"?>
<!-- Created with Inkscape (http://www.inkscape.org/) -->

<svg
   width="300px"
   height="100px"
   viewBox="0 0 300 100"
   version="1.1"
   id="SVGRoot"
   sodipodi:docname="BoneraLogo.svg"
   inkscape:version="1.1.1 (3bf5ae0d25, 2021-09-20, custom)"
   xmlns:inkscape="http://www.inkscape.org/namespaces/inkscape"
   xmlns:sodipodi="http://sodipodi.sourceforge.net/DTD/sodipodi-0.dtd"
   xmlns="http://www.w3.org/2000/svg"
   xmlns:svg="http://www.w3.org/2000/svg">
  <sodipodi:namedview
     id="namedview1130"
     pagecolor="#000000"
     bordercolor="#666666"
     borderopacity="1.0"
     inkscape:pageshadow="2"
     inkscape:pageopacity="0"
     inkscape:pagecheckerboard="true"
     inkscape:document-units="px"
     showgrid="false"
     inkscape:zoom="2.5906005"
     inkscape:cx="137.22687"
     inkscape:cy="59.638683"
     inkscape:window-width="1528"
     inkscape:window-height="920"
     inkscape:window-x="2508"
     inkscape:window-y="148"
     inkscape:window-maximized="0"
     inkscape:current-layer="layer1"
     inkscape:lockguides="true" />
  <defs
     id="defs1125" />
  <g
     inkscape:label="Layer 1"
     inkscape:groupmode="layer"
     id="layer1">
    <text
       xml:space="preserve"
       style="font-style:normal;font-variant:normal;font-weight:normal;font-stretch:normal;font-size:40px;line-height:1.25;font-family:'Noto Sans Miao';-inkscape-font-specification:'Noto Sans Miao';fill:#ffffff;fill-opacity:1;stroke:none"
       x="17.870443"
       y="65.721382"
       id="text2163"><tspan
         sodipodi:role="line"
         id="tspan2161"
         x="17.870443"
         y="65.721382"
         style="font-style:normal;font-variant:normal;font-weight:normal;font-stretch:normal;font-family:'Arial Black';-inkscape-font-specification:'Arial Black, '">BONERA 1.1</tspan></text>
    <path
       style="fill:#ffffff;stroke-width:0.0512496"
       d="m 126.12605,85.291801 c -0.39009,-0.481324 -0.77644,-1.125202 -0.90757,-1.512512 -0.0423,-0.124928 -0.0776,-0.238556 -0.0785,-0.252534 -0.003,-0.05124 0.79615,-0.162409 1.3715,-0.190766 0.3253,-0.01603 2.2333,-0.0972 4.23999,-0.180363 2.00669,-0.08317 3.74008,-0.15984 3.85197,-0.170378 l 0.20341,-0.01917 -0.0319,-3.0146 c -0.027,-2.546183 -0.0657,-3.521401 -0.16826,-4.242532 -0.0132,-0.09264 -0.0554,-0.115653 -0.28718,-0.156553 -0.49382,-0.08716 -1.03753,-0.07885 -4.7231,0.07217 -3.14858,0.12902 -4.41889,0.143311 -4.51293,0.05078 -0.0262,-0.02577 0.16623,-0.5463 0.29232,-0.790875 0.35474,-0.688066 1.1201,-1.623599 1.81678,-2.22074 0.99492,-0.852758 1.96345,-1.40758 3.15034,-1.804669 2.52607,-0.845134 5.21507,-0.571593 7.53271,0.766274 0.69452,0.40091 1.11389,0.73087 1.82869,1.438766 0.90046,0.892141 1.48633,1.734809 1.93174,2.779954 l 0.20221,0.474489 0.33086,-0.208323 c 0.5387,-0.339184 1.08355,-0.494412 1.77983,-0.507076 0.67497,-0.01228 1.15473,0.08591 1.71291,0.350575 0.33539,0.159027 0.42313,0.226783 0.8824,0.681283 0.35645,0.352493 0.54452,0.571834 0.62461,0.727478 l 0.11462,0.222776 0.15001,-0.112662 c 0.0825,-0.06197 1.00329,-0.793727 2.04622,-1.626118 1.79203,-1.430278 1.90599,-1.513711 2.0739,-1.518353 0.0977,-0.0027 4.2017,0.813189 9.11994,1.813083 4.91825,0.999894 8.95258,1.79891 8.96519,1.775596 0.0126,-0.02333 0.1161,-0.241909 0.22997,-0.48576 0.19376,-0.414902 0.23823,-0.475027 0.69246,-0.93639 0.43694,-0.443816 0.52421,-0.512256 0.87414,-0.685708 0.58401,-0.289487 0.94359,-0.370969 1.66986,-0.378389 0.54599,-0.0056 0.73908,0.02043 1.124,0.151419 0.55755,0.189737 0.96416,0.440228 1.38196,0.851355 0.42932,0.422451 0.68746,0.830887 0.88651,1.402624 0.13599,0.39063 0.16962,0.599197 0.16977,1.052819 2.1e-4,0.651982 -0.0377,0.903096 -0.2054,1.360148 -0.37388,1.019046 -1.32763,1.892637 -2.40468,2.202577 -0.43402,0.124901 -1.54289,0.122466 -1.95529,-0.0043 -0.56479,-0.173597 -0.92254,-0.377405 -1.38219,-0.787438 -0.64167,-0.572398 -0.99916,-1.183212 -1.15021,-1.965223 l -0.0523,-0.270795 -9.11311,2.567614 -9.11311,2.567617 -0.17351,-0.132894 c -0.0954,-0.07308 -1.02172,-0.882073 -2.05841,-1.797756 -1.03669,-0.915681 -1.88985,-1.6652 -1.89591,-1.665601 -0.006,-3.92e-4 -0.0695,0.08731 -0.14103,0.194912 -0.20028,0.301453 -0.70658,0.796994 -1.03933,1.017226 -0.16509,0.109292 -0.50816,0.273218 -0.76234,0.364316 -0.38196,0.136882 -0.57671,0.166457 -1.12234,0.170432 -0.53565,0.0039 -0.74696,-0.02415 -1.12024,-0.148746 -0.25303,-0.08445 -0.56217,-0.215947 -0.68699,-0.292203 l -0.22696,-0.138621 -0.20916,0.559691 c -0.25146,0.672869 -0.67179,1.486006 -1.07101,2.07189 -0.41249,0.605339 -1.59409,1.80613 -2.19271,2.22831 -2.07109,1.46065 -4.60217,2.012865 -7.06221,1.54079 -1.5101,-0.28977 -2.90427,-0.940623 -4.08777,-1.9083 -0.54519,-0.44577 -0.83838,-0.742444 -1.31507,-1.330597 z"
       id="path915" />
  </g>
</svg>
